<?xml version="1.0" encoding="iso-8859-1"?>
<!-- Generator: Adobe Illustrator 19.0.0, SVG Export Plug-In . SVG Version: 6.00 Build 0)  -->
<svg version="1.1" id="Layer_1" xmlns="http://www.w3.org/2000/svg" xmlns:xlink="http://www.w3.org/1999/xlink" x="0px" y="0px"
	 viewBox="0 0 512.001 512.001" style="enable-background:new 0 0 512.001 512.001;" xml:space="preserve">
<polygon style="fill:#5697DC;" points="288.108,185.012 253.293,219.826 218.48,185.012 253.374,150.28 "/>
<polygon style="fill:#5374C2;" points="218.48,185.012 253.374,150.28 288.108,185.012 "/>
<polygon style="fill:#5697DC;" points="253.293,217.767 288.506,258.52 297.422,503.384 209.166,503.384 218.081,258.52 "/>
<polygon style="fill:#5374C2;" points="253.293,217.767 288.506,258.52 297.422,503.384 253.293,503.384 "/>
<path style="fill:#FFA5B5;" d="M364.014,10.643H146.067c-13.342,0-24.258,10.916-24.258,24.258v51.251
	c0,13.342,10.916,24.258,24.258,24.258l45.552,101.625l61.756-61.756l61.755,61.756l48.884-101.624
	c13.342,0,24.258-10.916,24.258-24.258V34.902C388.272,21.56,377.356,10.643,364.014,10.643z M253.293,150.28l-89.635-89.635h0.081
	h179.189L253.293,150.28z"/>
<path style="fill:#F7ABD2;" d="M301.726,295.847l-0.44-0.442C301.284,295.405,301.447,295.567,301.726,295.847z"/>
<g>
	<path style="fill:#FF728B;" d="M364.645,10.136H253.924H146.698c-8.627,0-16.22,4.58-20.523,11.412
		c10.335,10.391,40.456,39.079,54.395,53.093l72.724-2.075h72.201l58.412-52.831C379.464,13.92,372.483,10.136,364.645,10.136z"/>
</g>
<path d="M365.867,0H146.132c-17.681,0-32.066,14.385-32.066,32.067v51.672c0,15.943,11.694,29.206,26.956,31.66l44.092,98.368
	c1.024,2.284,3.104,3.918,5.566,4.371c0.459,0.084,0.919,0.126,1.377,0.126c2,0,3.94-0.788,5.38-2.229l21.783-21.783l23.673,23.673
	l-29.914,34.62c-1.132,1.311-1.784,2.967-1.846,4.698l-8.989,246.873c-0.075,2.065,0.693,4.071,2.126,5.559
	c1.435,1.487,3.411,2.327,5.477,2.327h88.982c2.066,0,4.043-0.84,5.476-2.327c1.435-1.487,2.203-3.494,2.127-5.559l-8.989-246.873
	c-0.064-1.731-0.714-3.387-1.846-4.698l-29.914-34.621l23.755-23.754l21.864,21.864c1.745,1.744,4.224,2.532,6.657,2.12
	c2.431-0.414,4.512-1.98,5.581-4.203l47.396-98.531c15.33-2.394,27.098-15.69,27.098-31.683v-51.67
	C397.934,14.385,383.549,0,365.867,0z M290.838,496.782h-73.199l8.604-236.314l27.996-32.399l27.995,32.399L290.838,496.782z
	 M254.238,207.747l-24.257-24.257l24.338-24.338l24.257,24.257L254.238,207.747z M195.737,79.049h117.164L254.32,137.63
	L195.737,79.049z M382.716,83.739c0,9.29-7.558,16.848-16.848,16.848c-2.924,0-5.59,1.676-6.857,4.311l-44.634,92.789
	l-19.648-19.648c-0.003-0.003-0.006-0.007-0.009-0.01c-0.003-0.003-0.007-0.006-0.01-0.009l-29.628-29.628l71.568-71.568
	c0.002-0.002,0.004-0.004,0.006-0.006l13.415-13.415c2.972-2.972,2.972-7.79,0-10.76c-2.973-2.972-7.79-2.972-10.761,0
	L328.12,63.831H180.52L169.33,52.642c-2.972-2.972-7.789-2.972-10.76,0c-2.972,2.972-2.972,7.79,0,10.76l13.417,13.417
	c0.001,0.001,0.002,0.002,0.003,0.003l71.57,71.57l-28.815,28.815c-0.344,0.245-0.677,0.513-0.985,0.822
	c-0.308,0.308-0.577,0.641-0.823,0.986l-18.452,18.452l-41.409-92.382c-1.226-2.736-3.944-4.496-6.943-4.496
	c-9.29,0-16.848-7.558-16.848-16.848V32.067c0-9.291,7.558-16.849,16.848-16.849h219.733c9.29,0,16.848,7.558,16.848,16.849v51.672
	H382.716z"/>
<g>
</g>
<g>
</g>
<g>
</g>
<g>
</g>
<g>
</g>
<g>
</g>
<g>
</g>
<g>
</g>
<g>
</g>
<g>
</g>
<g>
</g>
<g>
</g>
<g>
</g>
<g>
</g>
<g>
</g>
</svg>
