<?xml version="1.0" encoding="utf-8"?>
<!-- Generator: Adobe Illustrator 21.1.0, SVG Export Plug-In . SVG Version: 6.00 Build 0)  -->
<svg version="1.1" id="Layer_1" xmlns="http://www.w3.org/2000/svg" xmlns:xlink="http://www.w3.org/1999/xlink" x="0px" y="0px"
	 viewBox="0 0 64 64" style="enable-background:new 0 0 64 64;" xml:space="preserve">
<style type="text/css">
	.st0{fill:#FF6C58;}
	.st1{fill:#D7385E;}
	.st2{fill-rule:evenodd;clip-rule:evenodd;fill:#314A52;}
</style>
<g id="Heels">
	<path class="st0" d="M42,38c5.1-4,10.9-6,14.9-7.1c2.9-0.7,5.2-3.1,5-6.1C61.5,17.7,59,10,53,10c-6,8-22.2,28-27,28
		c-4.8,0-7.3-2.7-8-4L4,44.5c-1.3,0.9-2,2.4-2,4c0,1.6,0.7,3.1,2,4c1.3,1,2.9,1.5,4.5,1.5h16.7c3,0,5.7-1.7,7.3-4.2
		C34.7,46.1,38.3,40.9,42,38z"/>
	<path class="st1" d="M40,37c7.1-6.6,14-14.2,14-25c0-0.3,0-0.7,0-1h4l4,17l-1.5,3C56.8,37.8,56,48,56,56h-4
		c0-6.5-0.7-16.3-3.6-19.7c-1.7,0.9-3.5,2-5.2,3.3c-3.4,2.7-6.8,7.6-9.1,11.3c-1.9,3.1-5.2,5.1-9,5.1H8.5c-2.1,0-4.1-0.7-5.7-1.9
		C1,52.8,0,50.7,0,48.5s1-4.3,2.8-5.6L18.7,31l1.1,2.1C20.1,33.8,22,36,26,36v4c-4,0-6.8-1.6-8.4-3.2l-9.7,7.3
		c-0.2,0.2-0.4,0.5-0.4,0.8c0,1.7,5.6,3.1,12.5,3.1c8.3,0,13.5-5,19.2-10.3C39.5,37.5,39.7,37.2,40,37z"/>
	<path class="st2" d="M51.9,8H53c4.1,0,6.7,2.7,8.3,5.8C62.9,17,63.7,21,64,24.7c0.3,4.2-3,7.3-6.5,8.2c-3.9,1-9.4,2.9-14.2,6.7
		l-2.5-3.1c5.4-4.2,11.5-6.4,15.7-7.4c2.3-0.6,3.6-2.3,3.5-4c-0.2-3.5-1-6.9-2.2-9.3c-1-2-2.3-3.2-3.7-3.5c0,0-0.1,0.1-0.1,0.2
		c-0.5,0.8-1.2,1.9-2.1,3.2c-1.8,2.7-4.2,6.2-7,9.8c-2.8,3.5-5.9,7.2-9.1,9.9c-1.6,1.4-3.2,2.6-4.8,3.4c-1.6,0.9-3.3,1.4-5,1.4
		c-4,0-6.8-1.6-8.4-3.2l2.8-2.8c0.9,0.9,2.7,2,5.6,2c0.8,0,1.8-0.3,3.1-1c1.2-0.7,2.6-1.7,4-2.9c2.9-2.5,5.8-5.9,8.6-9.4
		c2.7-3.4,5.1-6.9,6.8-9.5c0.9-1.3,1.6-2.4,2-3.1c0.2-0.4,0.4-0.7,0.5-0.9c0.1-0.1,0.1-0.2,0.1-0.2l0-0.1l0,0L51.9,8z"/>
</g>
</svg>
